Coordinates
version=1
nRows=7
nColumns=40
inDegrees=yes
endheader
time	pelvis_tilt	pelvis_list	pelvis_rotation	pelvis_tx	pelvis_ty	pelvis_tz	hip_flexion_r	hip_adduction_r	hip_rotation_r	knee_angle_r	knee_angle_r_beta	ankle_angle_r	subtalar_angle_r	mtp_angle_r	hip_flexion_l	hip_adduction_l	hip_rotation_l	knee_angle_l	knee_angle_l_beta	ankle_angle_l	subtalar_angle_l	mtp_angle_l	lumbar_extension	lumbar_bending	lumbar_rotation	arm_flex_r	arm_add_r	arm_rot_r	elbow_flex_r	pro_sup_r	wrist_flex_r	wrist_dev_r	arm_flex_l	arm_add_l	arm_rot_l	elbow_flex_l	pro_sup_l	wrist_flex_l	wrist_dev_l
1760624789.99399996	      8.15929940	      0.53833841	     -0.05667741	      0.03489184	      0.95890730	      0.01403627	     80.00000000	     -7.00000000	      0.00000000	     80.00000000	      1.39626340	      0.00000000	      0.00000000	      0.00000000	     80.00000000	     -7.00000000	      0.00000000	     80.00000000	      1.39626340	      0.00000000	      0.00000000	      0.00000000	     -8.91145814	     -1.32599646	      1.38220732	      2.81370505	     -2.86362245	     -4.28320710	     11.73858386	      5.41261053	    -10.03257798	      0.67675087	      4.55375094	     -2.02231650	     -0.09058908	      0.00000000	      0.00000000	      0.41408701	      1.73642264
1760624790.02800012	      8.09108334	      0.55267184	     -0.09341424	      0.03568845	      0.95871212	      0.01395415	     80.00000000	     -7.00000000	      0.00000000	     80.00000000	      1.39626340	      0.00000000	      0.00000000	      0.00000000	     80.00000000	     -7.00000000	      0.00000000	     80.00000000	      1.39626340	      0.00000000	      0.00000000	      0.00000000	     -8.81186235	     -1.36556544	      1.43533827	      2.76922293	     -2.85991125	     -4.35776177	     11.92616743	      5.46158301	    -10.28922468	      0.68035547	      4.50776217	     -2.02855548	     -0.10107234	      0.00000000	      0.00000000	      0.41643407	      1.74896587
1760624790.06100011	      8.08753545	      0.54286458	     -0.10389437	      0.03625732	      0.95863154	      0.01385778	     80.00000000	     -7.00000000	      0.00000000	     80.00000000	      1.39626340	      0.00000000	      0.00000000	      0.00000000	     80.00000000	     -7.00000000	      0.00000000	     80.00000000	      1.39626340	      0.00000000	      0.00000000	      0.00000000	     -8.80656249	     -1.37036292	      1.43048897	      2.76317579	     -2.84561479	     -4.33262255	     11.88423914	      5.45649594	    -10.31252481	      0.70589005	      4.50393293	     -2.01598793	     -0.10132954	      0.00000000	      0.00000000	      0.42652646	      1.74743473
1760624790.09500003	      8.07987506	      0.52940438	     -0.11101709	      0.03642732	      0.95869422	      0.01368531	     80.00000000	     -7.00000000	      0.00000000	     80.00000000	      1.39626340	      0.00000000	      0.00000000	      0.00000000	     80.00000000	     -7.00000000	      0.00000000	     80.00000000	      1.39626340	      0.00000000	      0.00000000	      0.00000000	     -8.80273308	     -1.37384389	      1.43256582	      2.73969498	     -2.83588403	     -4.36131607	     11.83015462	      5.60012363	    -10.35949417	      0.82439392	      4.51127770	     -1.99899793	     -0.14388041	      0.00000000	      0.00000000	      0.43386820	      1.74906183
1760624790.12800002	      8.07760483	      0.52423159	     -0.11567656	      0.03562841	      0.95888727	      0.01344922	     80.00000000	     -7.00000000	      0.00000000	     80.00000000	      1.39626340	      0.00000000	      0.00000000	      0.00000000	     80.00000000	     -7.00000000	      0.00000000	     80.00000000	      1.39626340	      0.00000000	      0.00000000	      0.00000000	     -8.82767427	     -1.36245027	      1.44460558	      2.75735808	     -2.83928007	     -4.35806890	     11.83947225	      5.50748877	    -10.35513904	      0.80641437	      4.55779233	     -1.96828717	     -0.15206620	      0.00000000	      0.00000000	      0.43183269	      1.74285589
1760624790.16199994	      8.23110727	      0.42260139	     -0.23449191	      0.03607622	      0.95903247	      0.01359751	     80.00000000	     -7.00000000	      0.00000000	     80.00000000	      1.39626340	      0.00000000	      0.00000000	      0.00000000	     80.00000000	     -7.00000000	      0.00000000	     80.00000000	      1.39626340	      0.00000000	      0.00000000	      0.00000000	     -9.04187377	     -1.27513137	      1.56830945	      2.81035281	     -2.84551986	     -4.33655492	     12.05694532	      5.44477084	    -10.58519529	      0.76234306	      4.63873119	     -1.95074928	     -0.16266589	      0.00000000	      0.00000000	      0.43260385	      1.77094905
1760624790.19499993	      8.47124153	      0.39983622	     -0.35150902	      0.03630584	      0.95955485	      0.01392183	     80.00000000	     -7.00000000	      0.00000000	     80.00000000	      1.39626340	      0.00000000	      0.00000000	      0.00000000	     80.00000000	     -7.00000000	      0.00000000	     80.00000000	      1.39626340	      0.00000000	      0.00000000	      0.00000000	     -9.36498730	     -1.27018702	      1.64884036	      2.88037355	     -2.85913028	     -4.32022482	     12.43715288	      5.42510183	    -10.93678217	      0.71544884	      4.76841166	     -1.95522124	     -0.22123053	      0.00000000	      0.00000000	      0.41665172	      1.78659651
